<svg width="628" height="114" viewBox="0 0 628 114" fill="none" xmlns="http://www.w3.org/2000/svg">
<g filter="url(#filter0_dd_1_2)">
<path d="M81.643 63V27.4531H84.2798V63H81.643ZM119.993 53.6738V52.4531H122.629V53.6006C122.629 56.1234 123.386 58.0358 124.9 59.3379C126.43 60.6237 128.538 61.2666 131.223 61.2666C133.909 61.2666 135.976 60.6156 137.424 59.3135C138.873 58.0114 139.597 56.3105 139.597 54.2109C139.597 52.2253 138.979 50.6546 137.742 49.499C136.521 48.3271 134.145 47.139 130.613 45.9346C127.081 44.7464 124.534 43.4525 122.971 42.0527C121.425 40.6367 120.652 38.5534 120.652 35.8027C120.652 33.166 121.555 31.0176 123.362 29.3574C125.185 27.6973 127.748 26.8672 131.052 26.8672C134.356 26.8672 136.928 27.7624 138.767 29.5527C140.623 31.3431 141.55 33.638 141.55 36.4375V37.4141H138.914V36.4375C138.914 34.3216 138.263 32.5882 136.96 31.2373C135.675 29.8701 133.705 29.1865 131.052 29.1865C128.383 29.1865 126.414 29.7725 125.144 30.9443C123.891 32.0999 123.264 33.7031 123.264 35.7539C123.264 37.6257 123.883 39.1149 125.12 40.2217C126.357 41.3285 128.741 42.4759 132.273 43.6641C135.789 44.8522 138.328 46.2275 139.89 47.79C141.453 49.3525 142.234 51.4847 142.234 54.1865C142.234 56.9697 141.241 59.2321 139.255 60.9736C137.27 62.7152 134.592 63.5859 131.223 63.5859C127.821 63.5859 125.095 62.7152 123.044 60.9736C121.01 59.2321 119.993 56.7988 119.993 53.6738ZM177.605 63V27.4531H180.242V43.4688H198.748V27.4531H201.384V63H198.748V45.7393H180.242V63H177.605ZM235.071 63L247.156 27.2822H250.183L262.268 63H259.534L249.622 33.1904C249.41 32.5557 249.231 32.0186 249.084 31.5791C248.954 31.1234 248.808 30.6107 248.645 30.041H248.523C248.376 30.6107 248.222 31.1315 248.059 31.6035C247.913 32.0592 247.742 32.5882 247.546 33.1904L237.683 63H235.071ZM239.709 52.8682L240.491 50.6709H256.799L257.556 52.8682H239.709ZM295.857 63V27.4531H298.494V46.5693L314.485 27.4531H317.61L298.494 50.0117V63H295.857ZM315.608 63L302.253 43.9814L303.987 42.0283L318.855 63H315.608ZM348.977 63L361.062 27.2822H364.089L376.174 63H373.44L363.528 33.1904C363.316 32.5557 363.137 32.0186 362.991 31.5791C362.86 31.1234 362.714 30.6107 362.551 30.041H362.429C362.283 30.6107 362.128 31.1315 361.965 31.6035C361.819 32.0592 361.648 32.5882 361.453 33.1904L351.589 63H348.977ZM353.616 52.8682L354.397 50.6709H370.706L371.462 52.8682H353.616ZM409.763 63V27.4531H412.668L429.416 56.5303C429.661 56.9535 429.88 57.3685 430.076 57.7754C430.271 58.1823 430.442 58.5729 430.588 58.9473H430.71C430.694 58.5241 430.678 58.0846 430.662 57.6289C430.662 57.1569 430.662 56.7093 430.662 56.2861V27.4531H433.176V63H430.32L413.523 33.8496C413.295 33.4427 413.075 33.0277 412.864 32.6045C412.652 32.1813 412.473 31.7826 412.327 31.4082H412.205C412.237 31.8314 412.253 32.3034 412.253 32.8242C412.27 33.3288 412.278 33.8008 412.278 34.2402V63H409.763ZM509.998 51.3057V27.4531H512.634V51.3545C512.634 54.805 513.399 57.3197 514.929 58.8984C516.459 60.4609 518.551 61.2422 521.204 61.2422C523.84 61.2422 525.915 60.4609 527.429 58.8984C528.943 57.3197 529.7 54.805 529.7 51.3545V27.4531H532.361V51.3057C532.361 55.4886 531.344 58.5811 529.309 60.583C527.291 62.585 524.581 63.5859 521.179 63.5859C517.81 63.5859 515.1 62.585 513.049 60.583C511.015 58.5811 509.998 55.4886 509.998 51.3057ZM567.61 53.6738V52.4531H570.247V53.6006C570.247 56.1234 571.003 58.0358 572.517 59.3379C574.047 60.6237 576.155 61.2666 578.84 61.2666C581.526 61.2666 583.593 60.6156 585.041 59.3135C586.49 58.0114 587.214 56.3105 587.214 54.2109C587.214 52.2253 586.596 50.6546 585.359 49.499C584.138 48.3271 581.762 47.139 578.23 45.9346C574.698 44.7464 572.151 43.4525 570.588 42.0527C569.042 40.6367 568.269 38.5534 568.269 35.8027C568.269 33.166 569.172 31.0176 570.979 29.3574C572.802 27.6973 575.365 26.8672 578.669 26.8672C581.973 26.8672 584.545 27.7624 586.384 29.5527C588.24 31.3431 589.167 33.638 589.167 36.4375V37.4141H586.531V36.4375C586.531 34.3216 585.88 32.5882 584.578 31.2373C583.292 29.8701 581.322 29.1865 578.669 29.1865C576 29.1865 574.031 29.7725 572.761 30.9443C571.508 32.0999 570.881 33.7031 570.881 35.7539C570.881 37.6257 571.5 39.1149 572.737 40.2217C573.974 41.3285 576.358 42.4759 579.89 43.6641C583.406 44.8522 585.945 46.2275 587.507 47.79C589.07 49.3525 589.851 51.4847 589.851 54.1865C589.851 56.9697 588.858 59.2321 586.872 60.9736C584.887 62.7152 582.209 63.5859 578.84 63.5859C575.439 63.5859 572.712 62.7152 570.662 60.9736C568.627 59.2321 567.61 56.7988 567.61 53.6738Z" fill="white"/>
</g>
<path d="M23.2573 56.358L9.77629 22H0L23.2573 72L46 22H36.4295L23.2573 56.358Z" fill="white"/>
<defs>
<filter id="filter0_dd_1_2" x="43.643" y="0.867188" width="584.208" height="112.719" filterUnits="userSpaceOnUse" color-interpolation-filters="sRGB">
<feFlood flood-opacity="0" result="BackgroundImageFix"/>
<feColorMatrix in="SourceAlpha" type="matrix" values="0 0 0 0 0 0 0 0 0 0 0 0 0 0 0 0 0 0 127 0" result="hardAlpha"/>
<feMorphology radius="4" operator="erode" in="SourceAlpha" result="effect1_dropShadow_1_2"/>
<feOffset dy="12"/>
<feGaussianBlur stdDeviation="21"/>
<feColorMatrix type="matrix" values="0 0 0 0 0.0941176 0 0 0 0 0.152941 0 0 0 0 0.294118 0 0 0 0.12 0"/>
<feBlend mode="normal" in2="BackgroundImageFix" result="effect1_dropShadow_1_2"/>
<feColorMatrix in="SourceAlpha" type="matrix" values="0 0 0 0 0 0 0 0 0 0 0 0 0 0 0 0 0 0 127 0" result="hardAlpha"/>
<feMorphology radius="6" operator="erode" in="SourceAlpha" result="effect2_dropShadow_1_2"/>
<feOffset dy="8"/>
<feGaussianBlur stdDeviation="9"/>
<feColorMatrix type="matrix" values="0 0 0 0 0.0941176 0 0 0 0 0.152941 0 0 0 0 0.294118 0 0 0 0.12 0"/>
<feBlend mode="normal" in2="effect1_dropShadow_1_2" result="effect2_dropShadow_1_2"/>
<feBlend mode="normal" in="SourceGraphic" in2="effect2_dropShadow_1_2" result="shape"/>
</filter>
</defs>
</svg>
